Coordinates
version=1
nRows=12
nColumns=24
inDegrees=yes

Units are S.I. units (second, meters, Newtons, ...)
Angles are in degrees.

endheader
time	pelvis_tilt	pelvis_list	pelvis_rotation	pelvis_tx	pelvis_ty	pelvis_tz	hip_flexion_r	hip_adduction_r	hip_rotation_r	knee_angle_r	ankle_angle_r	subtalar_angle_r	mtp_angle_r	hip_flexion_l	hip_adduction_l	hip_rotation_l	knee_angle_l	ankle_angle_l	subtalar_angle_l	mtp_angle_l	lumbar_extension	lumbar_bending	lumbar_rotation
      3.80000000	    -14.94079046	      2.82143234	    -12.95970591	      1.98253068	     -0.03556431	     -0.44877368	     -1.36779237	     -0.30698094	      6.34821727	    -11.68831538	      4.60677261	     11.49524936	     18.35104424	     39.52921845	     -4.04910500	    -19.91149809	     -4.07973160	    -13.60058283	     10.77454556	     15.08284745	     12.71501894	     -2.13252292	     12.75720977
      3.80500000	    -14.97564731	      2.84093940	    -13.18637240	      1.98904289	     -0.03626687	     -0.44841244	     -1.46631381	     -0.42466261	      6.40703619	    -12.07316089	      4.36634626	     11.88393089	     18.51445293	     39.71212282	     -4.23509821	    -19.92039397	     -4.85886630	    -13.54944542	     10.35324761	     15.16485233	     12.76772429	     -2.18560868	     12.91299301
      3.81000000	    -15.07534070	      2.89924673	    -13.35741879	      1.99574700	     -0.03707387	     -0.44816121	     -1.48052027	     -0.58670954	      6.31184921	    -12.48391251	      4.11562247	     12.40619180	     18.84599826	     39.94834202	     -4.34804804	    -19.84821258	     -5.64290244	    -13.60487832	      9.72990204	     15.28484343	     12.91965077	     -2.27179694	     12.97867048
      3.81500000	    -15.06123241	      2.89385219	    -13.57586857	      2.00239363	     -0.03771659	     -0.44780044	     -1.63521424	     -0.69810067	      6.36110379	    -12.86922181	      3.80446781	     12.79590508	     19.00528314	     40.03376541	     -4.53710259	    -19.82465819	     -6.46227665	    -13.59472640	      9.31659098	     15.40875637	     12.92392192	     -2.31784649	     13.13719158
      3.82000000	    -15.11546245	      2.97298730	    -13.75276996	      2.00927180	     -0.03845236	     -0.44759522	     -1.67494373	     -0.91241709	      6.22701675	    -13.30823052	      3.49227632	     13.41202435	     19.35239661	     40.16262170	     -4.60881497	    -19.81469349	     -7.22032739	    -13.74513359	      8.65837695	     15.59054358	     13.04697458	     -2.42486800	     13.23148797
      3.82500000	    -15.12870289	      3.02471696	    -13.92524301	      2.01613052	     -0.03911655	     -0.44735307	     -1.76480973	     -1.10703840	      6.11234111	    -13.73322988	      3.13626122	     14.00142995	     19.72239360	     40.23217671	     -4.69866899	    -19.84388501	     -7.97743374	    -13.96129288	      8.06580043	     15.79801101	     13.10936814	     -2.52740356	     13.33096575
      3.83000000	    -15.13487628	      3.09610336	    -14.10529083	      2.02308153	     -0.03974559	     -0.44711269	     -1.84224873	     -1.33162810	      5.97560342	    -14.18272112	      2.73887111	     14.61890131	     20.08519139	     40.26349094	     -4.76795030	    -19.94829539	     -8.69020409	    -14.24142847	      7.47101935	     16.01314033	     13.18312940	     -2.64772675	     13.43855940
      3.83500000	    -15.13811585	      3.18709572	    -14.27420136	      2.03006586	     -0.04033750	     -0.44689124	     -1.89943002	     -1.58633484	      5.80150426	    -14.65824322	      2.31405472	     15.29817871	     20.46957244	     40.27643562	     -4.80839627	    -20.09930555	     -9.36111399	    -14.65251145	      6.83340666	     16.24277368	     13.25780701	     -2.79164200	     13.54521807
      3.84000000	    -15.11846748	      3.25918185	    -14.41051820	      2.03706267	     -0.04086656	     -0.44673867	     -1.97409136	     -1.83886636	      5.53945873	    -15.13444113	      1.80199643	     16.02066640	     21.03945135	     40.25154260	     -4.83213641	    -20.22654191	     -9.97727768	    -15.24278535	      6.08006492	     16.60462100	     13.29669258	     -2.93066543	     13.60519351
      3.84500000	    -15.13605026	      3.42790356	    -14.57367661	      2.04412628	     -0.04136617	     -0.44651186	     -1.95024441	     -2.18580564	      5.32249164	    -15.67667554	      1.31574512	     16.78313302	     21.41338522	     40.26105972	     -4.80065091	    -20.51903358	    -10.56304404	    -15.89266074	      5.37855077	     16.75883526	     13.41540068	     -3.15468866	     13.72596893
      3.85000000	    -15.12476059	      3.56764125	    -14.70026394	      2.05116659	     -0.04175749	     -0.44638275	     -1.94294642	     -2.52685201	      4.99096673	    -16.22883141	      0.71066961	     17.63630961	     21.94006716	     40.23001757	     -4.75236844	    -20.69027503	    -11.09106948	    -16.71514336	      4.51414281	     17.03237815	     13.48417518	     -3.36356322	     13.79607856
      3.85500000	    -15.15054598	      3.80185982	    -14.83032983	      2.05826142	     -0.04211757	     -0.44618983	     -1.84186484	     -2.95914552	      4.67780807	    -16.83526910	      0.11149661	     18.50514944	     22.32936882	     40.25160735	     -4.63975870	    -20.95758287	    -11.61971533	    -17.53306623	      3.73533779	     17.10434586	     13.63053195	     -3.66346984	     13.90971183
